<?xml version="1.0" encoding="UTF-8"?>
<svg id="Layer_1" data-name="Layer 1" xmlns="http://www.w3.org/2000/svg" viewBox="0 0 600 600">
  <defs>
    <style>
      .cls-1 {
        fill: #fff;
        stroke-width: 0px;
      }
    </style>
  </defs>
  <path class="cls-1" d="M298.88,548.54C203.65,381.86,110.45,218.74,14.91,51.52c66.1,0,127.09-.3,188.07.53,5.33.07,12.43,6.56,15.55,11.92,59.37,101.68,118.34,203.6,177.01,305.69,2.7,4.7,4.59,13.08,2.25,16.98-31.78,53.09-64.38,105.68-98.92,161.89Z"/>
  <path class="cls-1" d="M476.71,229.62c0-29.38-1.03-58.81.38-88.13.86-17.99-4.1-29.18-20.73-38.01-27.03-14.35-52.58-31.49-84.1-50.72h212.82c-35,60.77-68.94,119.7-102.88,178.62-1.83-.59-3.66-1.18-5.49-1.77Z"/>
</svg>