<?xml version="1.0" encoding="UTF-8"?>
<svg id="Layer_1" data-name="Layer 1" xmlns="http://www.w3.org/2000/svg" viewBox="0 0 570.17 497.07">
  <defs>
    <style>
      .cls-1 {
        stroke-width: 0px;
      }
    </style>
  </defs>
  <path class="cls-1" d="M283.97,497.07C188.74,330.4,95.54,167.27,0,.05,66.1.05,127.09-.25,188.07.59c5.33.07,12.43,6.56,15.55,11.92,59.37,101.68,118.34,203.6,177.01,305.69,2.7,4.7,4.59,13.08,2.25,16.98-31.78,53.09-64.38,105.68-98.92,161.89Z"/>
  <path class="cls-1" d="M461.8,178.16c0-29.38-1.03-58.81.38-88.13.86-17.99-4.1-29.18-20.73-38.01-27.03-14.35-52.58-31.49-84.1-50.72h212.82c-35,60.77-68.94,119.7-102.88,178.62-1.83-.59-3.66-1.18-5.49-1.77Z"/>
</svg>